<?xml version="1.0" encoding="UTF-8"?>
<svg id="Warstwa_1" data-name="Warstwa 1" xmlns="http://www.w3.org/2000/svg" viewBox="0 0 544.73 315.71">
  <defs>
    <style>
      .cls-1 {
        fill: #010101;
      }
    </style>
  </defs>
  <path class="cls-1" d="M272.37,212.29l-162.5-50.01v83.53c0,38.61,72.77,69.9,162.54,69.9s162.55-31.3,162.55-69.9c0-.31-.1-.62-.11-.91v-82.62l-162.48,50.01Z"/>
  <path class="cls-1" d="M0,104.78l58.05,20.76,4.97-10.6,21.31-1.82,3.02,3.17-18.3,4.34-2.65,7.91s-41.36,86.39-35.27,128.65c0,0,25.8,15.42,51.59,0l6.85-115.56v-9.62l38.39-8.66-2.72,6.69-28.62,9.3,13.24,4.72,162.5,50.04,162.48-50.04,109.88-39.27L272.37,0,0,104.78Z"/>
</svg>